<svg width="158" height="41" viewBox="0 0 199 57" fill="none" xmlns="http://www.w3.org/2000/svg">
<path d="M21.2921 1C17.9561 14.9963 15.2582 29.5993 9.69799 42.9587C8.47148 45.9056 7.0867 48.4099 4.66295 50.4244C3.94014 51.0252 2.9383 51.0781 2.03932 51.0032C0.0596738 50.8382 1.36905 46.6191 2.19366 45.7945C3.90415 44.084 6.65949 42.0417 9.06138 41.6276C11.51 41.2054 13.7042 43.4467 16.2763 43.8654C19.8741 44.4511 25.5238 44.6679 25.787 39.93C25.8353 39.0603 26.157 37.9074 25.0346 37.8272C22.3544 37.6358 21.9144 39.8055 21.7165 42.0906C21.5544 43.9617 21.2742 46.1791 23.9543 45.2544C26.6605 44.3206 28.5978 42.2678 30.1854 39.9685C31.0712 38.6856 32.9211 34.3659 32.1917 35.7437C31.8923 36.3092 30.7711 39.6124 31.613 39.9685C32.851 40.4923 35.0797 39.4224 36.0307 38.8882C39.4012 36.995 42.5109 33.7794 44.4417 30.4386C47.9552 24.3594 49.4214 16.2526 50.3835 9.37245C50.3864 9.35134 51.2126 3.46688 49.959 4.78111C48.1781 6.64824 47.1 10.2821 46.2551 12.4976C44.5369 17.0033 43.14 21.5887 41.8567 26.2331C41.1375 28.836 40.4433 31.4354 39.6189 34.0075C39.3871 34.7307 39.0016 35.538 39.0016 36.3225C39.0016 37.9321 38.8299 39.4985 38.3071 41.0296C38.0957 41.6486 37.2858 44.2662 36.648 44.5213C36.1638 44.715 36.5709 43.4802 36.5709 42.9587C36.5709 42.052 36.5709 41.1453 36.5709 40.2386C36.5709 39.4334 36.2514 37.8416 36.7831 37.1327C37.7696 35.8173 39.8393 34.6759 41.1043 33.6217C43.9102 31.2834 47.026 28.7806 49.1874 25.8087C49.6342 25.1944 50.7897 23.3477 49.0331 23.9567C46.5537 24.8162 44.575 27.2459 43.0527 29.2618C42.1094 30.5111 39.1845 33.832 39.8504 35.7244C40.6717 38.0587 43.6899 38.547 45.7921 38.6953C48.704 38.9007 51.6903 38.6961 54.5697 38.2516C56.1761 38.0036 59.4336 37.7426 60.087 35.7823C60.5982 34.2489 60.2001 33.2937 58.6209 33.2937C54.7126 33.2937 52.835 37.1201 51.9268 40.5087C51.6291 41.6193 51.3695 42.8954 51.5024 44.0583C51.7519 46.2419 58.1762 42.9004 58.9102 42.3221C60.4849 41.0815 61.4427 39.3336 62.2284 37.5378C62.5693 36.7585 62.5489 36.2364 63.2315 35.7244C64.236 34.9711 63.5494 36.6532 63.4244 37.4607C63.2988 38.2722 62.3447 40.9727 62.8264 41.7433C62.9124 41.881 63.1362 41.6046 63.2315 41.4733C63.6413 40.9083 64.9256 38.4399 65.1606 38.0008C66.1526 36.1479 67.6429 32.111 68.4402 36.1488C68.6091 37.0043 68.6311 39.6499 69.8291 39.9878C71.198 40.3739 73.9813 36.6751 74.7292 35.9366C74.8633 35.8042 79.8619 31.0491 77.5457 31.7697C74.7501 32.6395 72.8245 36.632 72.6843 39.3898C72.5632 41.7711 77.4425 37.8927 77.8929 37.5764C84.2409 33.1193 86.7471 27.5647 88.1174 20.1177C88.3295 18.9646 90.4878 9.90357 88.754 16.0473C85.5327 27.4618 82.7737 38.9818 80.6709 50.6559C80.2538 52.9716 79.9629 54.1264 81.7898 51.6977C83.895 48.899 85.9319 45.9721 87.7508 42.978C88.7005 41.4146 88.8815 39.8185 90.3166 38.6567C90.9227 38.166 91.0896 38.078 91.7441 38.078C92.9933 38.078 96.5779 33.9522 97.03 35.8016C97.3952 37.2958 96.0032 39.7678 96.702 41.0488C97.2769 42.1028 100.764 39.3516 101.544 39.3126C101.978 39.2909 101.653 40.0836 102.123 39.9492C103.625 39.52 105.33 37.6303 106.483 36.7276C106.77 36.5026 112 31.8285 111.865 34.1233C111.679 37.2884 108.887 39.5403 106.502 41.2225C95.9794 48.6454 82.3904 53.0532 69.7134 54.5142C66.3401 54.903 62.6202 55.2804 59.1996 55.093C57.1354 54.9798 60.0439 53.4333 60.415 53.2024C65.8784 49.8034 71.7809 47.3655 77.9315 45.4859C101.176 38.3823 125.825 35.6207 149.946 33.5445C163.773 32.3544 177.643 31.6969 191.519 31.5575C192.985 31.5428 194.452 31.5601 195.917 31.5961C196.607 31.613 198.271 31.2882 197.962 31.9047C197.715 32.3988 195.817 32.4882 195.262 32.5992" stroke="white" stroke-width="2" stroke-linecap="round"/>
</svg>
